<svg viewBox="0 0 800 800" width="800" height="800" xmlns="http://www.w3.org/2000/svg" class="intersect-logo-idea">
 <g id="Layer_1">
  <title>Layer 1</title>
  <rect fill="none" x="70.99999" y="60.03368" width="665.00001" height="660.74809" id="svg_1" stroke-width="35" stroke="#000"/>
  <rect fill="#000000" x="212" y="51.75832" width="34" height="145.35679" id="svg_3" rx="20" stroke="#000"/>
  <rect fill="#000000" x="326" y="55.75832" width="34" height="247.35678" id="svg_4" rx="20" stroke="#000"/>
  <rect fill="#000000" x="628.5" y="145.25832" width="34" height="186.35678" id="svg_5" rx="20" stroke="#000" transform="rotate(90 645.5 238.437)"/>
  <rect fill="#000000" x="125.00032" y="410.75863" width="34" height="143.35678" id="svg_6" stroke="#000" transform="rotate(90 142 482.437)"/>
  <rect fill="#000000" x="410" y="515.75832" width="34" height="207.35678" id="svg_11" rx="20" stroke="#000"/>
  <rect fill="#000000" x="410" y="475.75832" width="34" height="246.35678" id="svg_15" rx="20" stroke="#000"/>
  <rect fill="#000000" x="450.5" y="382.49235" width="34" height="140.88874" id="svg_17" rx="20" stroke="#000" transform="rotate(45 467.5 452.937)"/>
  <rect fill="#000000" x="490" y="554.75832" width="34" height="167.35679" id="svg_18" rx="20" stroke="#000"/>
  <rect fill="#000000" x="526.00018" y="472.35639" width="34" height="128.16082" id="svg_19" rx="20" stroke="#000" transform="rotate(45 543 536.437)"/>
  <ellipse fill="none" cx="531.5" cy="390.2217" id="svg_20" rx="30.5" ry="29.63679" stroke="#000" stroke-width="30"/>
  <ellipse fill="none" cx="343.5" cy="319.2217" id="svg_21" rx="30.5" ry="29.63679" stroke="#000" stroke-width="30"/>
  <ellipse fill="none" cx="227.5" cy="218.2217" id="svg_22" rx="30.5" ry="29.63679" stroke="#000" stroke-width="30"/>
  <ellipse fill="none" cx="531.5" cy="237.2217" id="svg_23" rx="30.5" ry="29.63679" stroke="#000" stroke-width="30"/>
  <ellipse fill="none" cx="232.5" cy="480.2217" id="svg_24" rx="30.5" ry="29.63679" stroke="#000" stroke-width="30"/>
  <ellipse fill="none" cx="600.83334" cy="482.2217" id="svg_31" rx="30.5" ry="29.63679" stroke="#000" stroke-width="30"/>
  <rect transform="rotate(-180 119.333 371.604)" stroke="#000" fill="#000000" x="102.33341" y="293.75901" width="34" height="155.69012" id="svg_40"/>
  <rect transform="rotate(-90 548.833 113.771)" stroke="#000" fill="#000000" x="531.83331" y="-33.74103" width="34" height="295.02344" id="svg_44"/>
  <rect transform="rotate(-180 686.666 389.939)" stroke="#000" fill="#000000" x="669.66607" y="364.76094" width="34" height="50.35676" id="svg_46"/>
  <rect fill="#000000" x="669.66595" y="411.42692" width="34" height="31.35677" id="svg_47" stroke="#000" transform="rotate(-180 686.666 427.105)"/>
  <rect fill="#000000" x="669.66595" y="318.09359" width="34" height="31.35677" id="svg_48" stroke="#000" transform="rotate(-180 686.666 333.772)"/>
  <rect transform="rotate(-180 686.666 296.605)" stroke="#000" fill="#000000" x="669.66607" y="271.42625" width="34" height="50.35676" id="svg_49"/>
  <rect transform="rotate(90 249.166 669.678)" stroke="#000" fill="#000000" x="232.16586" width="34" height="287.02348" id="svg_51" y="526.16644"/>
  <rect transform="rotate(90 249.166 606.678)" stroke="#000" fill="#000000" x="232.16586" width="34" height="287.02348" id="svg_2" y="463.16644"/>
 </g>

</svg>