<svg width="786" height="786" xmlns="http://www.w3.org/2000/svg" class="intersect-logo-idea">
 <g id="Layer_1">
  <title>Layer 1</title>
  <!-- <ellipse stroke="#000" ry="381.48216" rx="382.99998" id="svg_15" cy="392.48213" cx="391.99998" fill="#EC3D91"/> -->
  <ellipse stroke="#000" ry="375.5" rx="375.5" id="svg_1" cy="393" cx="393" stroke-width="35" fill="none"/>
  <rect stroke="#000" rx="20" id="svg_3" height="145.35679" width="34" y="57.72464" x="199.00001" fill="#000000"/>
  <rect stroke="#000" rx="20" id="svg_4" height="247.35678" width="34" y="21.72464" x="313.00001" fill="#000000"/>
  <rect transform="rotate(90 652.5 254.403)" stroke="#000" rx="20" id="svg_5" height="186.35678" width="34" y="161.22464" x="635.50001" fill="#000000"/>
  <rect transform="rotate(90 114 398.404)" stroke="#000" id="svg_6" height="173.35679" width="34" y="311.72526" x="96.99996" fill="#000000"/>
  <rect stroke="#000" rx="20" id="svg_11" height="216.35678" width="34" y="552.72464" x="437.00001" fill="#000000"/>
  <rect transform="rotate(45.3045 494.5 528.903)" stroke="#000" rx="20" id="svg_17" height="140.88874" width="34" y="458.45867" x="477.50001" fill="#000000"/>
  <ellipse stroke-width="30" stroke="#000" ry="29.63679" rx="30.5" id="svg_20" cy="466.18802" cx="558.50001" fill="none"/>
  <ellipse stroke-width="30" stroke="#000" ry="29.63679" rx="30.5" id="svg_21" cy="285.18802" cx="330.50001" fill="none"/>
  <ellipse stroke-width="30" stroke="#000000" ry="29.63679" rx="30.5" id="svg_22" cy="224.18802" cx="214.50001" fill="none"/>
  <ellipse stroke-width="30" stroke="#000" ry="29.63679" rx="30.5" id="svg_23" cy="253.18802" cx="538.50001" fill="none"/>
  <ellipse stroke-width="30" stroke="#000" ry="29.63679" rx="30.5" id="svg_24" cy="396.18802" cx="229.50001" fill="none"/>
  <rect transform="rotate(-180 205.333 547.07)" id="svg_40" height="76.69011" width="34" y="508.72539" x="188.33346" fill="#000000" stroke="#000"/>
  <rect transform="rotate(-90 617.833 149.737)" id="svg_44" height="131.02344" width="34" y="84.22529" x="600.83332" fill="#000000" stroke="#000"/>
  <rect transform="rotate(-180 673.666 348.071)" id="svg_49" height="81.35678" width="34" y="307.39255" x="656.66608" fill="#000000" stroke="#000"/>
  <rect transform="rotate(90 171.666 665.644)" stroke="#000" y="626.63236" id="svg_51" height="78.02349" width="34" x="154.66582" fill="#000000"/>
  <rect transform="rotate(-180 673.666 458.071)" id="svg_8" height="81.35678" width="34" y="417.39255" x="656.66608" fill="#000000" stroke="#000"/>
  <rect transform="rotate(-180 145.333 507.07)" id="svg_9" height="76.69011" width="34" y="468.72539" x="128.33346" fill="#000000" stroke="#000"/>
  <rect transform="rotate(-90 447.833 149.737)" id="svg_10" height="131.02344" width="34" y="84.22529" x="430.83332" fill="#000000" stroke="#000"/>
  <rect stroke="#000" rx="20" id="svg_2" height="250.35677" width="34" y="516.72462" x="310.00001" fill="#000000"/>
  <rect transform="rotate(45 363 498.403)" stroke="#000" rx="20" id="svg_7" height="128.16082" width="34" y="434.32271" x="346.00019" fill="#000000"/>
  <ellipse stroke-width="30" stroke="#000" ry="29.63679" rx="30.5" id="svg_12" cy="444.18802" cx="420.83335" fill="none"/>
  <path id="svg_14" d="m916.40001,341.21537l0.13398,-0.34574l0.23204,-0.19963l0.26796,0l0.23204,0.19963l0.13398,0.34574l0,0.39926l-0.13398,0.34574l-0.23204,0.19963l-0.26796,0l-0.23204,-0.19963l-0.13398,-0.34574l0,-0.39926z" stroke="#000" fill="#000000"/>
 </g>

</svg>