<svg viewBox="0 0 800 800" width="800" height="800" xmlns="http://www.w3.org/2000/svg" class="intersect-logo-idea">
 <g id="Layer_1">
  <title>Layer 1</title>
  <rect stroke="#000000" rx="50" stroke-width="35" id="svg_1" height="660.74809" width="665.00001" y="61.36701" x="70.99999" fill="#fff"/>
  <rect stroke="#000000" rx="20" id="svg_3" height="145.35679" width="34" y="51.75832" x="212" fill="#000000"/>
  <rect stroke="#000000" rx="20" id="svg_4" height="247.35678" width="34" y="55.75832" x="326" fill="#000000"/>
  <rect transform="rotate(90 645.5 238.437)" stroke="#000000" rx="20" id="svg_5" height="186.35678" width="34" y="145.25832" x="628.5" fill="#000000"/>
  <rect transform="rotate(90 142 482.437)" stroke="#000000" rx="20" id="svg_6" height="143.35678" width="34" y="410.75863" x="125.00032" fill="#000000"/>
  <rect stroke="#000000" rx="20" id="svg_11" height="207.35678" width="34" y="515.75832" x="410" fill="#000000"/>
  <rect stroke="#000000" rx="20" id="svg_15" height="246.35678" width="34" y="475.75832" x="410" fill="#000000"/>
  <rect transform="rotate(45 467.5 452.937)" stroke="#000000" rx="20" id="svg_17" height="140.88874" width="34" y="382.49235" x="450.5" fill="#000000"/>
  <rect stroke="#000000" rx="20" id="svg_18" height="167.35679" width="34" y="554.75832" x="490" fill="#000000"/>
  <rect transform="rotate(45 543 536.437)" stroke="#000000" rx="20" id="svg_19" height="128.16082" width="34" y="472.35639" x="526.00018" fill="#000000"/>
  <ellipse stroke-width="30" stroke="#000000" ry="29.63679" rx="30.5" id="svg_20" cy="390.2217" cx="531.5" fill="none"/>
  <ellipse stroke-width="30" stroke="#000000" ry="29.63679" rx="30.5" id="svg_21" cy="319.2217" cx="343.5" fill="none"/>
  <ellipse stroke-width="30" stroke="#000000" ry="29.63679" rx="30.5" id="svg_22" cy="218.2217" cx="227.5" fill="none"/>
  <ellipse stroke-width="30" stroke="#000000" ry="29.63679" rx="30.5" id="svg_23" cy="237.2217" cx="531.5" fill="none"/>
  <ellipse stroke-width="30" stroke="#000000" ry="29.63679" rx="30.5" id="svg_24" cy="481.2217" cx="233.5" fill="none"/>
  <ellipse stroke-width="30" stroke="#000000" ry="29.63679" rx="30.5" id="svg_25" cy="482.2217" cx="600.5" fill="none"/>
 </g>
</svg>