<svg width="0" height="0" class="hidden">
  <symbol xmlns="http://www.w3.org/2000/svg" fill="none" stroke="currentColor" stroke-width="2" stroke-linecap="round" stroke-linejoin="round" viewBox="0 0 24 24" id="chevron-down">
    <polyline points="6 9 12 15 18 9"></polyline>
  </symbol>
  <symbol xmlns="http://www.w3.org/2000/svg" fill="none" stroke="currentColor" stroke-width="2" stroke-linecap="round" stroke-linejoin="round" viewBox="0 0 24 24" id="chevron-right">
    <polyline points="9 18 15 12 9 6"></polyline>
  </symbol>
  <symbol xmlns="http://www.w3.org/2000/svg" xmlns:xlink="http://www.w3.org/1999/xlink" version="1.1" viewBox="0 0 24 24" id="external">
    <title>share</title>
    <desc>Created with Sketch.</desc>
    <defs></defs>
    <g id="Page-1" stroke="none" stroke-width="1" fill="none" fill-rule="evenodd" stroke-linecap="round">
      <g id="Artboard-4" transform="translate(-312.000000, -203.000000)" stroke="currentColor" stroke-width="2">
        <g id="47" transform="translate(312.000000, 203.000000)">
          <path d="M20,15 L20,18.0026083 C20,19.1057373 19.1073772,20 18.0049107,20 L5.99508929,20 C4.8932319,20 4,19.1073772 4,18.0049107 L4,5.99508929 C4,4.8932319 4.89585781,4 5.9973917,4 L9,4" id="Rectangle-460"></path>
          <polyline id="Path-93" stroke-linejoin="round" points="13 4 20.0207973 4 20.0207973 11.0191059"></polyline>
          <path d="M19,5 L12,12" id="Path-94" stroke-linejoin="round"></path>
        </g>
      </g>
    </g>
  </symbol>
  <symbol xmlns="http://www.w3.org/2000/svg" xmlns:xlink="http://www.w3.org/1999/xlink" version="1.1" viewBox="0 0 24 24" id="ghost">
    <title>ghost</title>
    <desc>Created with Sketch.</desc>
    <defs></defs>
    <g id="Page-1" stroke="none" stroke-width="2" fill="none" fill-rule="evenodd">
      <g id="Artboard-4" transform="translate(-268.000000, -467.000000)">
        <g id="166" transform="translate(268.000000, 467.000000)">
          <path d="M20,15.6631043 C20,18.1652331 20,20.4948065 20,20.4948065 C20,21.0589658 19.6519857,21.2215886 19.2226884,20.8781507 L18.2773116,20.1218493 C17.8476143,19.7780914 17.1519857,19.7784114 16.7226884,20.1218493 L15.7773116,20.8781507 C15.3476143,21.2219086 14.625859,21.2505727 14.1643327,20.9428885 L12.8356673,20.0571115 C12.3678589,19.7452393 11.625859,19.7494273 11.1643327,20.0571115 L9.83566725,20.9428885 C9.36785889,21.2547607 8.65198573,21.2215886 8.22268838,20.8781507 L7.27731162,20.1218493 C6.84761429,19.7780914 6.15198573,19.7784114 5.72268838,20.1218493 L4.77731162,20.8781507 C4.34761429,21.2219086 4,21.0481841 4,20.4908409 C4,20.4908409 4,18.3378686 4,15.6631043 C2.81520747,15.1875381 1,14.1841204 1,12.5 C1,10.5947419 3.03280467,10.7222885 4,10.8908022 C4,10.5881803 4,10.2905141 4,10 C4,5.581722 7.581722,2 12,2 C16.418278,2 20,5.581722 20,10 C20,10.2177859 20,10.5222486 20,10.8908022 C20.9671953,10.7222885 23,10.5947419 23,12.5 C23,14.1841204 21.1847925,15.1875381 20,15.6631043 Z" id="Combined-Shape" stroke="currentColor" stroke-width="2" stroke-linejoin="round"></path>
          <path d="M9.5,11 C8.67157288,11 8,10.3284271 8,9.5 C8,8.67157288 8.67157288,8 9.5,8 C10.3284271,8 11,8.67157288 11,9.5 C11,10.3284271 10.3284271,11 9.5,11 Z M12,14 C11.4477153,14 11,13.5522847 11,13 C11,12.4477153 11.4477153,12 12,12 C12.5522847,12 13,12.4477153 13,13 C13,13.5522847 12.5522847,14 12,14 Z M14.5,11 C13.6715729,11 13,10.3284271 13,9.5 C13,8.67157288 13.6715729,8 14.5,8 C15.3284271,8 16,8.67157288 16,9.5 C16,10.3284271 15.3284271,11 14.5,11 Z" id="Face" fill="currentColor"></path>
        </g>
      </g>
    </g>
  </symbol>
  <symbol xmlns="http://www.w3.org/2000/svg" viewBox="0 0 496 512" id="github">
    <path d="M165.9 397.4c0 2-2.3 3.6-5.2 3.6-3.3.3-5.6-1.3-5.6-3.6 0-2 2.3-3.6 5.2-3.6 3-.3 5.6 1.3 5.6 3.6zm-31.1-4.5c-.7 2 1.3 4.3 4.3 4.9 2.6 1 5.6 0 6.2-2s-1.3-4.3-4.3-5.2c-2.6-.7-5.5.3-6.2 2.3zm44.2-1.7c-2.9.7-4.9 2.6-4.6 4.9.3 2 2.9 3.3 5.9 2.6 2.9-.7 4.9-2.6 4.6-4.6-.3-1.9-3-3.2-5.9-2.9zM244.8 8C106.1 8 0 113.3 0 252c0 110.9 69.8 205.8 169.5 239.2 12.8 2.3 17.3-5.6 17.3-12.1 0-6.2-.3-40.4-.3-61.4 0 0-70 15-84.7-29.8 0 0-11.4-29.1-27.8-36.6 0 0-22.9-15.7 1.6-15.4 0 0 24.9 2 38.6 25.8 21.9 38.6 58.6 27.5 72.9 20.9 2.3-16 8.8-27.1 16-33.7-55.9-6.2-112.3-14.3-112.3-110.5 0-27.5 7.6-41.3 23.6-58.9-2.6-6.5-11.1-33.3 2.6-67.9 20.9-6.5 69 27 69 27 20-5.6 41.5-8.5 62.8-8.5s42.8 2.9 62.8 8.5c0 0 48.1-33.6 69-27 13.7 34.7 5.2 61.4 2.6 67.9 16 17.7 25.8 31.5 25.8 58.9 0 96.5-58.9 104.2-114.8 110.5 9.2 7.9 17 22.9 17 46.4 0 33.7-.3 75.4-.3 83.6 0 6.5 4.6 14.4 17.3 12.1C428.2 457.8 496 362.9 496 252 496 113.3 383.5 8 244.8 8zM97.2 352.9c-1.3 1-1 3.3.7 5.2 1.6 1.6 3.9 2.3 5.2 1 1.3-1 1-3.3-.7-5.2-1.6-1.6-3.9-2.3-5.2-1zm-10.8-8.1c-.7 1.3.3 2.9 2.3 3.9 1.6 1 3.6.7 4.3-.7.7-1.3-.3-2.9-2.3-3.9-2-.6-3.6-.3-4.3.7zm32.4 35.6c-1.6 1.3-1 4.3 1.3 6.2 2.3 2.3 5.2 2.6 6.5 1 1.3-1.3.7-4.3-1.3-6.2-2.2-2.3-5.2-2.6-6.5-1zm-11.4-14.7c-1.6 1-1.6 3.6 0 5.9 1.6 2.3 4.3 3.3 5.6 2.3 1.6-1.3 1.6-3.9 0-6.2-1.4-2.3-4-3.3-5.6-2z"></path>
  </symbol>
  <symbol xmlns="http://www.w3.org/2000/svg" xmlns:xlink="http://www.w3.org/1999/xlink" version="1.1" viewBox="0 0 24 24" id="menu">
    <title>menu</title>
    <desc>Created with Sketch.</desc>
    <defs></defs>
    <g id="Page-1" stroke="none" stroke-width="1" fill="none" fill-rule="evenodd">
      <g id="Artboard-4" transform="translate(-180.000000, -203.000000)" stroke="currentColor">
        <g id="44" transform="translate(180.000000, 203.000000)">
          <path d="M3.5,7 C3.5,6.72319836 3.72175357,6.5 3.99339768,6.5 L20.0066023,6.5 C20.2799786,6.5 20.5,6.72089465 20.5,7 C20.5,7.27680164 20.2782464,7.5 20.0066023,7.5 L3.99339768,7.5 C3.72002141,7.5 3.5,7.27910535 3.5,7 Z M3.5,12 C3.5,11.7231984 3.72175357,11.5 3.99339768,11.5 L20.0066023,11.5 C20.2799786,11.5 20.5,11.7208946 20.5,12 C20.5,12.2768016 20.2782464,12.5 20.0066023,12.5 L3.99339768,12.5 C3.72002141,12.5 3.5,12.2791054 3.5,12 Z M3.5,17 C3.5,16.7231984 3.72175357,16.5 3.99339768,16.5 L20.0066023,16.5 C20.2799786,16.5 20.5,16.7208946 20.5,17 C20.5,17.2768016 20.2782464,17.5 20.0066023,17.5 L3.99339768,17.5 C3.72002141,17.5 3.5,17.2791054 3.5,17 Z" id="Combined-Shape"></path>
        </g>
      </g>
    </g>
  </symbol>
  <symbol version="1.1" xmlns="http://www.w3.org/2000/svg" xmlns:xlink="http://www.w3.org/1999/xlink" viewBox="0 0 24 24" id="mode-dark">
    <title>moon</title>
    <desc>Created with Sketch.</desc>
    <defs></defs>
    <g id="Page-1" stroke="none" stroke-width="1" fill="none" fill-rule="evenodd" stroke-linecap="round" stroke-linejoin="round">
      <g id="Artboard-4" transform="translate(-664.000000, -203.000000)" stroke="currentColor" stroke-width="2">
        <g id="55" transform="translate(664.000000, 203.000000)">
          <path d="M9.12175642,3.47035451 C5.49230528,4.69467553 3,8.10853649 3,12 C3,16.9705627 7.02943725,21 12,21 C14.9739035,21 17.7047464,19.5459111 19.3778653,17.1555331 L21.1235221,14.6615206 L18.2389763,15.6345631 C17.5244505,15.8755937 16.7713361,16 16,16 C12.1340068,16 9,12.8659932 9,9 C9,7.54423175 9.44426893,6.15767823 10.2606454,4.99132455 L12.0063022,2.49731207 L9.12175642,3.47035451 Z" id="Combined-Shape"></path>
        </g>
      </g>
    </g>
  </symbol>
  <symbol version="1.1" xmlns="http://www.w3.org/2000/svg" xmlns:xlink="http://www.w3.org/1999/xlink" viewBox="0 0 24 24" id="mode-light">
    <title>brightness-mid</title>
    <desc>Created with Sketch.</desc>
    <defs></defs>
    <g id="Page-1" stroke="none" stroke-width="1" fill="none" fill-rule="evenodd">
      <g id="Artboard-4" transform="translate(-620.000000, -203.000000)" stroke="currentColor" stroke-width="2">
        <g id="54" transform="translate(620.000000, 203.000000)">
          <circle id="Oval-52" cx="12" cy="12" r="4"></circle>
          <path d="M12,5 L12,3 M16.9497475,7.05025253 L18.363961,5.63603897 M19,12 L21,12 M16.9497475,16.9497475 L18.363961,18.363961 M12,19 L12,21 M7.05025253,16.9497475 L5.63603897,18.363961 M5,12 L3,12 M7.05025253,7.05025253 L5.63603897,5.63603897" id="Path-137" stroke-linecap="round" stroke-linejoin="round"></path>
        </g>
      </g>
    </g>
  </symbol>
  <symbol xmlns="http://www.w3.org/2000/svg" xmlns:xlink="http://www.w3.org/1999/xlink" version="1.1" viewBox="0 0 24 24" id="search">
    <defs></defs>
    <g id="Page-1" stroke="none" stroke-width="1" fill="none" fill-rule="evenodd">
      <g id="Artboard-4" transform="translate(-136.000000, -115.000000)" stroke="currentColor" stroke-width="2">
        <g id="3" transform="translate(136.000000, 115.000000)">
          <circle id="Oval-3" cx="10" cy="10" r="7"></circle>
          <path d="M15,15 L21,21" id="Path-3" stroke-linecap="round" stroke-linejoin="round"></path>
        </g>
      </g>
    </g>
  </symbol>
  <symbol xmlns="http://www.w3.org/2000/svg" xmlns:xlink="http://www.w3.org/1999/xlink" version="1.1" viewBox="0 0 24 24" id="sidebar">
    <title>sidebar</title>
    <desc>Created with Sketch.</desc>
    <defs></defs>
    <g id="Page-1" stroke="none" stroke-width="1" fill="none" fill-rule="evenodd">
      <g id="Artboard-4" transform="translate(-532.000000, -423.000000)">
        <g id="152" transform="translate(532.000000, 423.000000)">
          <rect id="Rectangle-97" stroke="currentColor" stroke-width="2" x="2" y="4" width="20" height="16" rx="2"></rect>
          <rect id="Rectangle-98" fill="currentColor" x="9" y="5" width="2" height="15"></rect>
          <path d="M4,7 L8,7 L8,8 L4,8 L4,7 Z M4,10 L8,10 L8,11 L4,11 L4,10 Z M4,13 L8,13 L8,14 L4,14 L4,13 Z M4,16 L8,16 L8,17 L4,17 L4,16 Z" id="Combined-Shape" fill="currentColor" opacity="0.5"></path>
        </g>
      </g>
    </g>
  </symbol>
  <symbol xmlns="http://www.w3.org/2000/svg" xmlns:xlink="http://www.w3.org/1999/xlink" version="1.1" viewBox="0 0 24 24" id="x">
    <defs></defs>
    <g id="Page-1" stroke="none" stroke-width="1" fill="none" fill-rule="evenodd" stroke-linecap="round">
      <g id="Artboard-4" transform="translate(-312.000000, -115.000000)" stroke="currentColor" stroke-width="2">
        <g id="7" transform="translate(312.000000, 115.000000)">
          <path d="M19,5 L5,19" id="Path-14"></path>
          <path d="M19,5 L5,19" id="Path-14" transform="translate(12.000000, 12.000000) scale(-1, 1) translate(-12.000000, -12.000000) "></path>
        </g>
      </g>
    </g>
  </symbol>
  <symbol version="1.0" xmlns="http://www.w3.org/2000/svg" preserveAspectRatio="xMidYMid meet" viewBox="0 0 786.000000 786.000000" id="logo">
    <g transform="translate(0.000000,786.000000) scale(0.100000,-0.100000)" fill="currentColor" stroke="none">
      <path d="M3710 7674 c-19 -2 -91 -9 -160 -15 -734 -63 -1479 -383 -2061 -886
-201 -174 -560 -566 -544 -594 4 -5 677 -9 1761 -9 1741 0 1754 0 1774 -20 19
-19 20 -33 20 -313 0 -237 -3 -297 -14 -313 -14 -19 -49 -19 -1987 -24 l-1973
-5 -37 -85 c-71 -165 -169 -454 -169 -499 0 -8 767 -11 3015 -11 3002 0 3015
0 3035 -20 19 -19 20 -33 20 -315 0 -282 -1 -296 -20 -315 -20 -20 -33 -20
-3094 -20 l-3073 0 -7 -77 c-8 -97 -8 -320 1 -445 l6 -98 1829 0 c1815 0 1828
0 1848 -20 19 -19 20 -33 20 -315 0 -282 -1 -296 -20 -315 -20 -20 -33 -20
-1784 -20 -971 0 -1767 -3 -1769 -7 -8 -13 97 -322 158 -465 l58 -138 2088 0
c2076 0 2089 0 2109 -20 19 -19 20 -33 20 -315 0 -282 -1 -296 -20 -315 -20
-20 -33 -20 -1895 -20 -1363 0 -1875 -3 -1875 -11 0 -27 207 -264 361 -414
521 -504 1156 -838 1869 -984 433 -88 981 -92 1425 -10 582 108 1169 372 1620
727 802 633 1301 1520 1421 2527 25 208 25 661 1 865 -65 536 -227 1021 -493
1471 -605 1027 -1651 1701 -2839 1829 -102 11 -561 21 -625 14z"></path>
    </g>
  </symbol>
</svg>