<?xml version="1.0" standalone="no"?>
<!DOCTYPE svg PUBLIC "-//W3C//DTD SVG 20010904//EN"
 "http://www.w3.org/TR/2001/REC-SVG-20010904/DTD/svg10.dtd">
<svg version="1.0" xmlns="http://www.w3.org/2000/svg"
 width="700.000000pt" height="700.000000pt" viewBox="0 0 700.000000 700.000000"
 preserveAspectRatio="xMidYMid meet">
<metadata>
Created by potrace 1.14, written by Peter Selinger 2001-2017
</metadata>
<g transform="translate(0.000000,700.000000) scale(0.100000,-0.100000)"
fill="#000000" stroke="none">
<path d="M3297 6834 c-1 -1 -40 -5 -87 -8 -47 -4 -94 -9 -105 -11 -11 -2 -47
-7 -80 -10 -33 -4 -105 -15 -160 -26 -55 -11 -111 -22 -125 -25 -35 -7 -116
-30 -257 -74 -387 -123 -754 -322 -1107 -604 -120 -96 -488 -482 -522 -548
l-15 -28 158 -1 c87 0 738 -2 1448 -4 1656 -4 1517 -2 1541 -19 18 -14 19 -29
20 -256 0 -272 -1 -296 -25 -305 -22 -9 -709 -15 -2228 -18 -706 -2 -1284 -5
-1286 -8 -27 -34 -177 -458 -177 -500 0 -23 -348 -20 2810 -25 1350 -2 2479
-5 2509 -7 84 -6 83 1 79 -304 -2 -144 -6 -264 -9 -267 -14 -15 -298 -16
-2826 -18 l-2671 -1 -5 -31 c-7 -44 -6 -422 2 -476 l6 -45 1500 -1 c1785 -2
1751 -1 1770 -21 16 -16 17 -33 16 -342 0 -159 -3 -197 -15 -209 -21 -21 -78
-22 -1723 -25 -787 -1 -1434 -5 -1438 -8 -6 -6 81 -281 109 -344 7 -16 26 -61
41 -100 16 -38 32 -74 37 -80 6 -6 619 -10 1751 -11 2030 -2 1972 -1 1989 -22
18 -21 21 -524 4 -548 -9 -12 -34 -17 -107 -20 -51 -2 -787 -5 -1634 -6 -847
-2 -1559 -5 -1583 -8 l-43 -5 68 -84 c66 -84 296 -321 384 -396 331 -288 703
-503 1113 -644 209 -72 438 -127 610 -147 23 -3 52 -7 66 -9 135 -24 698 -24
813 0 12 2 47 7 77 11 62 7 83 10 122 17 125 24 209 44 308 74 63 19 122 36
130 38 8 2 63 22 122 44 388 145 775 376 1045 623 404 369 676 748 873 1217
76 180 158 440 186 591 2 14 9 48 15 76 38 191 52 364 52 629 0 164 -10 374
-18 405 -2 8 -7 39 -10 69 -4 30 -9 63 -11 75 -2 12 -6 33 -9 49 -109 594
-354 1101 -775 1602 -58 69 -282 286 -372 361 -490 406 -1098 671 -1725 749
-97 12 -615 28 -626 19z"/>
</g>
</svg>
