<svg xmlns="http://www.w3.org/2000/svg" xmlns:xlink="http://www.w3.org/1999/xlink" width="24px" height="24px" viewBox="0 0 24 24" version="1.1">
    <!-- Generator: Sketch 43.2 (39069) - http://www.bohemiancoding.com/sketch -->
    <title>copy</title>
    <desc>Created with Sketch.</desc>
    <defs/>
    <g id="Page-1" stroke="none" stroke-width="1" fill="none" fill-rule="evenodd">
        <g id="Artboard-4" transform="translate(-92.000000, -247.000000)">
            <g id="62" transform="translate(92.000000, 247.000000)">
                <path d="M7,6.00748397 L7,18.992516 C7,20.1003052 7.890372,21 8.9955775,21 L18.0044225,21 C19.1072771,21 20,20.1067204 20,19.0044225 L20,9 L20,8.58542907 L19.7066753,8.29246203 L15.7017925,4.29246203 L15.4089735,4 L14.9951172,4 L9.00222974,4 C7.89485293,4 7,4.89985206 7,6.00748397 Z" id="Rectangle-410" stroke="#333333" stroke-width="2" stroke-linejoin="round"/>
                <path d="M16.8277126,4 L13.4084678,0.58492406 C13.0334655,0.210378892 12.5251274,0 11.9951172,0 L5.9964216,0 C4.34595783,0 3,1.34576814 3,3.00087166 L3,15.9991283 C3,17.6605333 4.34483505,19 6.00247329,19 L10.5,19 L6,19 L6,16.9999973 C5.44748653,16.9986752 5,16.5545406 5,15.9991283 L5,3.00087166 C5,2.4481055 5.4527598,2 5.9964216,2 L11.9951172,2 L13.9975586,4 L16.8277126,4 Z" id="Combined-Shape" fill="#333333" fill-rule="nonzero"/>
                <polyline id="Path-25" stroke="#333333" stroke-width="2" stroke-linecap="round" stroke-linejoin="round" points="13 7 13 11 17 11"/>
            </g>
        </g>
    </g>
</svg>