<svg xmlns="http://www.w3.org/2000/svg" xmlns:xlink="http://www.w3.org/1999/xlink" width="24px" height="24px" viewBox="0 0 24 24" version="1.1">
    <!-- Generator: Sketch 43.2 (39069) - http://www.bohemiancoding.com/sketch -->
    <title>ghost</title>
    <desc>Created with Sketch.</desc>
    <defs/>
    <g id="Page-1" stroke="none" stroke-width="2" fill="none" fill-rule="evenodd">
        <g id="Artboard-4" transform="translate(-268.000000, -467.000000)">
            <g id="166" transform="translate(268.000000, 467.000000)">
                <path d="M20,15.6631043 C20,18.1652331 20,20.4948065 20,20.4948065 C20,21.0589658 19.6519857,21.2215886 19.2226884,20.8781507 L18.2773116,20.1218493 C17.8476143,19.7780914 17.1519857,19.7784114 16.7226884,20.1218493 L15.7773116,20.8781507 C15.3476143,21.2219086 14.625859,21.2505727 14.1643327,20.9428885 L12.8356673,20.0571115 C12.3678589,19.7452393 11.625859,19.7494273 11.1643327,20.0571115 L9.83566725,20.9428885 C9.36785889,21.2547607 8.65198573,21.2215886 8.22268838,20.8781507 L7.27731162,20.1218493 C6.84761429,19.7780914 6.15198573,19.7784114 5.72268838,20.1218493 L4.77731162,20.8781507 C4.34761429,21.2219086 4,21.0481841 4,20.4908409 C4,20.4908409 4,18.3378686 4,15.6631043 C2.81520747,15.1875381 1,14.1841204 1,12.5 C1,10.5947419 3.03280467,10.7222885 4,10.8908022 C4,10.5881803 4,10.2905141 4,10 C4,5.581722 7.581722,2 12,2 C16.418278,2 20,5.581722 20,10 C20,10.2177859 20,10.5222486 20,10.8908022 C20.9671953,10.7222885 23,10.5947419 23,12.5 C23,14.1841204 21.1847925,15.1875381 20,15.6631043 Z" id="Combined-Shape" stroke="#333333" stroke-width="2" stroke-linejoin="round"/>
                <path d="M9.5,11 C8.67157288,11 8,10.3284271 8,9.5 C8,8.67157288 8.67157288,8 9.5,8 C10.3284271,8 11,8.67157288 11,9.5 C11,10.3284271 10.3284271,11 9.5,11 Z M12,14 C11.4477153,14 11,13.5522847 11,13 C11,12.4477153 11.4477153,12 12,12 C12.5522847,12 13,12.4477153 13,13 C13,13.5522847 12.5522847,14 12,14 Z M14.5,11 C13.6715729,11 13,10.3284271 13,9.5 C13,8.67157288 13.6715729,8 14.5,8 C15.3284271,8 16,8.67157288 16,9.5 C16,10.3284271 15.3284271,11 14.5,11 Z" id="Face" fill="#333333"/>
            </g>
        </g>
    </g>
</svg>