<svg version="1.0" xmlns="http://www.w3.org/2000/svg"
 width="786.000000pt" height="786.000000pt" viewBox="0 0 786.000000 786.000000"
 preserveAspectRatio="xMidYMid meet">

<g transform="translate(0.000000,786.000000) scale(0.100000,-0.100000)"
fill="#db0a5b" stroke="none">
<path d="M3710 7674 c-19 -2 -91 -9 -160 -15 -734 -63 -1479 -383 -2061 -886
-201 -174 -560 -566 -544 -594 4 -5 677 -9 1761 -9 1741 0 1754 0 1774 -20 19
-19 20 -33 20 -313 0 -237 -3 -297 -14 -313 -14 -19 -49 -19 -1987 -24 l-1973
-5 -37 -85 c-71 -165 -169 -454 -169 -499 0 -8 767 -11 3015 -11 3002 0 3015
0 3035 -20 19 -19 20 -33 20 -315 0 -282 -1 -296 -20 -315 -20 -20 -33 -20
-3094 -20 l-3073 0 -7 -77 c-8 -97 -8 -320 1 -445 l6 -98 1829 0 c1815 0 1828
0 1848 -20 19 -19 20 -33 20 -315 0 -282 -1 -296 -20 -315 -20 -20 -33 -20
-1784 -20 -971 0 -1767 -3 -1769 -7 -8 -13 97 -322 158 -465 l58 -138 2088 0
c2076 0 2089 0 2109 -20 19 -19 20 -33 20 -315 0 -282 -1 -296 -20 -315 -20
-20 -33 -20 -1895 -20 -1363 0 -1875 -3 -1875 -11 0 -27 207 -264 361 -414
521 -504 1156 -838 1869 -984 433 -88 981 -92 1425 -10 582 108 1169 372 1620
727 802 633 1301 1520 1421 2527 25 208 25 661 1 865 -65 536 -227 1021 -493
1471 -605 1027 -1651 1701 -2839 1829 -102 11 -561 21 -625 14z"/>
</g>
</svg>
